<svg xmlns="http://www.w3.org/2000/svg" width="1600" height="900" viewBox="0 0 1600 900" role="img" aria-labelledby="title desc" id="figure-01-system-architecture">
<title id="title">冻结 RAG 核心架构</title>
<desc id="desc">可信版本、授权双路检索、默认 RRF、证据约束生成、Citation 审计和生命周期失败关闭。</desc>
<defs>
  <filter id="shadow" x="-10%" y="-10%" width="120%" height="130%">
    <feDropShadow dx="0" dy="5" stdDeviation="8" flood-color="#102A43" flood-opacity="0.08"/>
  </filter>
</defs>
<rect id="canvas" width="1600" height="900" fill="#F4F7FB"/>
<text id="figure-number" x="60" y="42" font-family="Hiragino Sans" font-size="14" font-weight="600" fill="#2F6BFF" text-anchor="start" letter-spacing="1.8">
<tspan x="60" dy="0">FIGURE 01</tspan>
</text>
<text id="figure-title" x="60" y="78" font-family="Hiragino Sans" font-size="30" font-weight="650" fill="#102A43" text-anchor="start">
<tspan x="60" dy="0">冻结 RAG 核心架构</tspan>
</text>
<text id="figure-subtitle" x="60" y="103" font-family="Hiragino Sans" font-size="15" font-weight="400" fill="#5D6B7E" text-anchor="start">
<tspan x="60" dy="0">可信版本进入授权检索；模型只消费可追溯 Evidence</tspan>
</text>
<rect id="baseline-badge-bg" x="1250" y="35" width="290" height="38" rx="19" fill="#173B57" stroke="#173B57" stroke-width="1.5"/>
<text id="baseline-badge" x="1395" y="60" font-family="Hiragino Sans" font-size="13" font-weight="600" fill="#FFFFFF" text-anchor="middle" letter-spacing="0.7">
<tspan x="1395" dy="0">RAG COMPETITION · FROZEN</tspan>
</text>
<g id="group-trusted-knowledge" aria-label="可信知识与版本">
<rect id="group-trusted-knowledge-panel" x="60" y="125" width="1480" height="135" rx="22" fill="#F8FAFD" stroke="#D8E1EC" stroke-width="1.2"/>
<rect id="group-trusted-knowledge-accent" x="60" y="125" width="7" height="135" rx="3" fill="#158A9B" stroke="#158A9B" stroke-width="0"/>
<text id="group-trusted-knowledge-label" x="84" y="158" font-family="Hiragino Sans" font-size="16" font-weight="650" fill="#158A9B" text-anchor="start">
<tspan x="84" dy="0">可信知识与版本</tspan>
</text>
</g>
<g id="group-authorized-retrieval" aria-label="授权混合检索">
<rect id="group-authorized-retrieval-panel" x="60" y="280" width="1040" height="235" rx="22" fill="#F8FAFD" stroke="#D8E1EC" stroke-width="1.2"/>
<rect id="group-authorized-retrieval-accent" x="60" y="280" width="7" height="235" rx="3" fill="#2F6BFF" stroke="#2F6BFF" stroke-width="0"/>
<text id="group-authorized-retrieval-label" x="84" y="313" font-family="Hiragino Sans" font-size="16" font-weight="650" fill="#2F6BFF" text-anchor="start">
<tspan x="84" dy="0">授权混合检索</tspan>
</text>
</g>
<g id="group-grounded-generation" aria-label="证据约束生成">
<rect id="group-grounded-generation-panel" x="1120" y="280" width="420" height="235" rx="22" fill="#F8FAFD" stroke="#D8E1EC" stroke-width="1.2"/>
<rect id="group-grounded-generation-accent" x="1120" y="280" width="7" height="235" rx="3" fill="#168B5B" stroke="#168B5B" stroke-width="0"/>
<text id="group-grounded-generation-label" x="1144" y="313" font-family="Hiragino Sans" font-size="16" font-weight="650" fill="#168B5B" text-anchor="start">
<tspan x="1144" dy="0">证据约束生成</tspan>
</text>
</g>
<g id="group-citation-audit" aria-label="引用与多证据审计">
<rect id="group-citation-audit-panel" x="60" y="535" width="1480" height="140" rx="22" fill="#F8FAFD" stroke="#D8E1EC" stroke-width="1.2"/>
<rect id="group-citation-audit-accent" x="60" y="535" width="7" height="140" rx="3" fill="#7456D8" stroke="#7456D8" stroke-width="0"/>
<text id="group-citation-audit-label" x="84" y="568" font-family="Hiragino Sans" font-size="16" font-weight="650" fill="#7456D8" text-anchor="start">
<tspan x="84" dy="0">引用与多证据审计</tspan>
</text>
</g>
<g id="group-lifecycle" aria-label="生命周期与安全护栏">
<rect id="group-lifecycle-panel" x="60" y="695" width="1480" height="130" rx="22" fill="#F8FAFD" stroke="#D8E1EC" stroke-width="1.2"/>
<rect id="group-lifecycle-accent" x="60" y="695" width="7" height="130" rx="3" fill="#C83E4D" stroke="#C83E4D" stroke-width="0"/>
<text id="group-lifecycle-label" x="84" y="728" font-family="Hiragino Sans" font-size="16" font-weight="650" fill="#C83E4D" text-anchor="start">
<tspan x="84" dy="0">生命周期与安全护栏</tspan>
</text>
</g>
<g id="node-approved-source" aria-label="获准 PDF / 文献来源">
<rect id="node-approved-source-bg" x="95" y="170" width="235" height="66" rx="15" fill="#FFFFFF" stroke="#D8E1EC" stroke-width="1.2" filter="url(#shadow)"/>
<rect id="node-approved-source-accent" x="95" y="170" width="6" height="66" rx="3" fill="#158A9B" stroke="#158A9B" stroke-width="0"/>
<text id="node-approved-source-title" x="113" y="201" font-family="Hiragino Sans" font-size="17" font-weight="650" fill="#102A43" text-anchor="start">
<tspan x="113" dy="0">获准 PDF / 文献来源</tspan>
</text>
<text id="node-approved-source-detail" x="113" y="225" font-family="Hiragino Sans" font-size="13" font-weight="430" fill="#5D6B7E" text-anchor="start">
<tspan x="113" dy="0">OCR 未完成</tspan>
</text>
</g>
<g id="node-chunk-identity" aria-label="Chunk + 页码 / 邻接身份">
<rect id="node-chunk-identity-bg" x="390" y="170" width="245" height="66" rx="15" fill="#FFFFFF" stroke="#D8E1EC" stroke-width="1.2" filter="url(#shadow)"/>
<rect id="node-chunk-identity-accent" x="390" y="170" width="6" height="66" rx="3" fill="#158A9B" stroke="#158A9B" stroke-width="0"/>
<text id="node-chunk-identity-title" x="408" y="201" font-family="Hiragino Sans" font-size="17" font-weight="650" fill="#102A43" text-anchor="start">
<tspan x="408" dy="0">Chunk + 页码 / 邻接身份</tspan>
</text>
</g>
<g id="node-postgres-truth" aria-label="PostgreSQL owner / 版本 / 快照">
<rect id="node-postgres-truth-bg" x="695" y="160" width="320" height="82" rx="15" fill="#FFFFFF" stroke="#D8E1EC" stroke-width="1.2" filter="url(#shadow)"/>
<rect id="node-postgres-truth-accent" x="695" y="160" width="6" height="82" rx="3" fill="#158A9B" stroke="#158A9B" stroke-width="0"/>
<text id="node-postgres-truth-title" x="713" y="191" font-family="Hiragino Sans" font-size="17" font-weight="650" fill="#102A43" text-anchor="start">
<tspan x="713" dy="0">PostgreSQL owner / 版本 / 快照</tspan>
</text>
<text id="node-postgres-truth-detail" x="713" y="215" font-family="Hiragino Sans" font-size="13" font-weight="430" fill="#5D6B7E" text-anchor="start">
<tspan x="713" dy="0">生命周期与不可变 Chunk 事实源</tspan>
</text>
</g>
<g id="node-ready-version" aria-label="READY 版本">
<rect id="node-ready-version-bg" x="1120" y="160" width="245" height="82" rx="15" fill="#E8F7F0" stroke="#D8E1EC" stroke-width="1.2" filter="url(#shadow)"/>
<rect id="node-ready-version-accent" x="1120" y="160" width="6" height="82" rx="3" fill="#168B5B" stroke="#168B5B" stroke-width="0"/>
<text id="node-ready-version-title" x="1138" y="191" font-family="Hiragino Sans" font-size="17" font-weight="650" fill="#102A43" text-anchor="start">
<tspan x="1138" dy="0">READY 版本</tspan>
</text>
<text id="node-ready-version-detail" x="1138" y="215" font-family="Hiragino Sans" font-size="13" font-weight="430" fill="#5D6B7E" text-anchor="start">
<tspan x="1138" dy="0">解析 · Chunk · ES · Milvus 就绪</tspan>
</text>
</g>
<path id="edge-source-chunk" d="M 330 203 L 390 203" fill="none" stroke="#158A9B" stroke-width="2.5" stroke-linecap="round" stroke-linejoin="round" opacity="1"/>
<polygon id="edge-source-chunk-arrowhead" points="390.0,203.0 380.0,207.5 380.0,198.5" fill="#158A9B" opacity="1"/>
<path id="edge-chunk-postgres" d="M 635 203 L 695 203" fill="none" stroke="#158A9B" stroke-width="2.5" stroke-linecap="round" stroke-linejoin="round" opacity="1"/>
<polygon id="edge-chunk-postgres-arrowhead" points="695.0,203.0 685.0,207.5 685.0,198.5" fill="#158A9B" opacity="1"/>
<path id="edge-postgres-ready" d="M 1015 203 L 1120 203" fill="none" stroke="#168B5B" stroke-width="2.5" stroke-linecap="round" stroke-linejoin="round" opacity="1"/>
<polygon id="edge-postgres-ready-arrowhead" points="1120.0,203.0 1110.0,207.5 1110.0,198.5" fill="#168B5B" opacity="1"/>
<g id="node-question" aria-label="用户问题">
<rect id="node-question-bg" x="95" y="355" width="165" height="78" rx="15" fill="#FFFFFF" stroke="#D8E1EC" stroke-width="1.2" filter="url(#shadow)"/>
<rect id="node-question-accent" x="95" y="355" width="6" height="78" rx="3" fill="#2F6BFF" stroke="#2F6BFF" stroke-width="0"/>
<text id="node-question-title" x="177.5" y="386" font-family="Hiragino Sans" font-size="17" font-weight="650" fill="#102A43" text-anchor="middle">
<tspan x="177.5" dy="0">用户问题</tspan>
</text>
<text id="node-question-detail" x="177.5" y="410" font-family="Hiragino Sans" font-size="13" font-weight="430" fill="#5D6B7E" text-anchor="middle">
<tspan x="177.5" dy="0">Question</tspan>
</text>
</g>
<g id="node-elasticsearch" aria-label="Elasticsearch">
<rect id="node-elasticsearch-bg" x="330" y="316" width="190" height="74" rx="15" fill="#FFFFFF" stroke="#D8E1EC" stroke-width="1.2" filter="url(#shadow)"/>
<rect id="node-elasticsearch-accent" x="330" y="316" width="6" height="74" rx="3" fill="#2F6BFF" stroke="#2F6BFF" stroke-width="0"/>
<text id="node-elasticsearch-title" x="348" y="347" font-family="Hiragino Sans" font-size="17" font-weight="650" fill="#102A43" text-anchor="start">
<tspan x="348" dy="0">Elasticsearch</tspan>
</text>
<text id="node-elasticsearch-detail" x="348" y="371" font-family="Hiragino Sans" font-size="13" font-weight="430" fill="#5D6B7E" text-anchor="start">
<tspan x="348" dy="0">BM25 词项检索</tspan>
</text>
</g>
<g id="node-milvus" aria-label="Milvus">
<rect id="node-milvus-bg" x="330" y="414" width="190" height="74" rx="15" fill="#FFFFFF" stroke="#D8E1EC" stroke-width="1.2" filter="url(#shadow)"/>
<rect id="node-milvus-accent" x="330" y="414" width="6" height="74" rx="3" fill="#2F6BFF" stroke="#2F6BFF" stroke-width="0"/>
<text id="node-milvus-title" x="348" y="445" font-family="Hiragino Sans" font-size="17" font-weight="650" fill="#102A43" text-anchor="start">
<tspan x="348" dy="0">Milvus</tspan>
</text>
<text id="node-milvus-detail" x="348" y="469" font-family="Hiragino Sans" font-size="13" font-weight="430" fill="#5D6B7E" text-anchor="start">
<tspan x="348" dy="0">BGE-M3 向量检索</tspan>
</text>
</g>
<g id="node-top20" aria-label="双路候选 Top-20">
<rect id="node-top20-bg" x="565" y="365" width="170" height="76" rx="15" fill="#FFFFFF" stroke="#D8E1EC" stroke-width="1.2" filter="url(#shadow)"/>
<rect id="node-top20-accent" x="565" y="365" width="6" height="76" rx="3" fill="#2F6BFF" stroke="#2F6BFF" stroke-width="0"/>
<text id="node-top20-title" x="650.0" y="396" font-family="Hiragino Sans" font-size="17" font-weight="650" fill="#102A43" text-anchor="middle">
<tspan x="650.0" dy="0">双路候选 Top-20</tspan>
</text>
</g>
<g id="node-rrf" aria-label="RRF 融合 · k=60">
<rect id="node-rrf-bg" x="775" y="365" width="160" height="76" rx="15" fill="#FFFFFF" stroke="#D8E1EC" stroke-width="1.2" filter="url(#shadow)"/>
<rect id="node-rrf-accent" x="775" y="365" width="6" height="76" rx="3" fill="#2F6BFF" stroke="#2F6BFF" stroke-width="0"/>
<text id="node-rrf-title" x="855.0" y="396" font-family="Hiragino Sans" font-size="17" font-weight="650" fill="#102A43" text-anchor="middle">
<tspan x="855.0" dy="0">RRF 融合 · k=60</tspan>
</text>
<text id="node-rrf-detail" x="855.0" y="420" font-family="Hiragino Sans" font-size="13" font-weight="430" fill="#5D6B7E" text-anchor="middle">
<tspan x="855.0" dy="0">按名次融合</tspan>
</text>
</g>
<g id="node-evidence-top3" aria-label="Evidence Top-3">
<rect id="node-evidence-top3-bg" x="955" y="365" width="145" height="76" rx="15" fill="#E8F7F0" stroke="#D8E1EC" stroke-width="1.2" filter="url(#shadow)"/>
<rect id="node-evidence-top3-accent" x="955" y="365" width="6" height="76" rx="3" fill="#168B5B" stroke="#168B5B" stroke-width="0"/>
<text id="node-evidence-top3-title" x="1027.5" y="396" font-family="Hiragino Sans" font-size="15" font-weight="650" fill="#102A43" text-anchor="middle">
<tspan x="1027.5" dy="0">Evidence Top-3</tspan>
</text>
</g>
<path id="edge-question-es" d="M 260 384 H 290 V 353 H 330" fill="none" stroke="#2F6BFF" stroke-width="2.5" stroke-linecap="round" stroke-linejoin="round" opacity="1"/>
<polygon id="edge-question-es-arrowhead" points="330.0,353.0 320.0,357.5 320.0,348.5" fill="#2F6BFF" opacity="1"/>
<path id="edge-question-milvus" d="M 260 404 H 290 V 451 H 330" fill="none" stroke="#2F6BFF" stroke-width="2.5" stroke-linecap="round" stroke-linejoin="round" opacity="1"/>
<polygon id="edge-question-milvus-arrowhead" points="330.0,451.0 320.0,455.5 320.0,446.5" fill="#2F6BFF" opacity="1"/>
<path id="edge-es-top20" d="M 520 353 H 545 V 393 H 565" fill="none" stroke="#2F6BFF" stroke-width="2.5" stroke-linecap="round" stroke-linejoin="round" opacity="1"/>
<polygon id="edge-es-top20-arrowhead" points="565.0,393.0 555.0,397.5 555.0,388.5" fill="#2F6BFF" opacity="1"/>
<path id="edge-milvus-top20" d="M 520 451 H 545 V 413 H 565" fill="none" stroke="#2F6BFF" stroke-width="2.5" stroke-linecap="round" stroke-linejoin="round" opacity="1"/>
<polygon id="edge-milvus-top20-arrowhead" points="565.0,413.0 555.0,417.5 555.0,408.5" fill="#2F6BFF" opacity="1"/>
<path id="edge-top20-rrf" d="M 735 403 L 775 403" fill="none" stroke="#2F6BFF" stroke-width="2.5" stroke-linecap="round" stroke-linejoin="round" opacity="1"/>
<polygon id="edge-top20-rrf-arrowhead" points="775.0,403.0 765.0,407.5 765.0,398.5" fill="#2F6BFF" opacity="1"/>
<path id="edge-rrf-top3" d="M 935 403 L 955 403" fill="none" stroke="#2F6BFF" stroke-width="2.5" stroke-linecap="round" stroke-linejoin="round" opacity="1"/>
<polygon id="edge-rrf-top3-arrowhead" points="955.0,403.0 945.0,407.5 945.0,398.5" fill="#2F6BFF" opacity="1"/>
<path id="edge-ready-es" d="M 1190 242 V 275 H 425 V 316" fill="none" stroke="#168B5B" stroke-width="1.8" stroke-linecap="round" stroke-linejoin="round" opacity="0.8"/>
<polygon id="edge-ready-es-arrowhead" points="425.0,316.0 420.5,306.0 429.5,306.0" fill="#168B5B" opacity="0.8"/>
<path id="edge-ready-milvus" d="M 1255 242 V 266 H 535 V 451 H 520" fill="none" stroke="#168B5B" stroke-width="1.8" stroke-linecap="round" stroke-linejoin="round" opacity="0.8"/>
<polygon id="edge-ready-milvus-arrowhead" points="520.0,451.0 530.0,446.5 530.0,455.5" fill="#168B5B" opacity="0.8"/>
<rect id="default-ranking-bg" x="770" y="470" width="255" height="34" rx="17" fill="#EAF0FF" stroke="#EAF0FF" stroke-width="0"/>
<text id="default-ranking" x="897.5" y="492" font-family="Hiragino Sans" font-size="13" font-weight="650" fill="#2F6BFF" text-anchor="middle">
<tspan x="897.5" dy="0">默认 RRF · Reranker OFF</tspan>
</text>
<g id="node-qwen" aria-label="Qwen3 14B">
<rect id="node-qwen-bg" x="1145" y="335" width="150" height="70" rx="15" fill="#FFFFFF" stroke="#D8E1EC" stroke-width="1.2" filter="url(#shadow)"/>
<rect id="node-qwen-accent" x="1145" y="335" width="6" height="70" rx="3" fill="#168B5B" stroke="#168B5B" stroke-width="0"/>
<text id="node-qwen-title" x="1163" y="366" font-family="Hiragino Sans" font-size="17" font-weight="650" fill="#102A43" text-anchor="start">
<tspan x="1163" dy="0">Qwen3 14B</tspan>
</text>
<text id="node-qwen-detail" x="1163" y="390" font-family="Hiragino Sans" font-size="13" font-weight="430" fill="#5D6B7E" text-anchor="start">
<tspan x="1163" dy="0">think=false</tspan>
</text>
</g>
<g id="node-prompt" aria-label="academic-evidence-answer-v1">
<rect id="node-prompt-bg" x="1145" y="424" width="210" height="70" rx="15" fill="#FFFFFF" stroke="#D8E1EC" stroke-width="1.2" filter="url(#shadow)"/>
<rect id="node-prompt-accent" x="1145" y="424" width="6" height="70" rx="3" fill="#168B5B" stroke="#168B5B" stroke-width="0"/>
<text id="node-prompt-title" x="1163" y="455" font-family="Hiragino Sans" font-size="12" font-weight="650" fill="#102A43" text-anchor="start">
<tspan x="1163" dy="0">academic-evidence-answer-v1</tspan>
</text>
<text id="node-prompt-detail" x="1163" y="479" font-family="Hiragino Sans" font-size="13" font-weight="430" fill="#5D6B7E" text-anchor="start">
<tspan x="1163" dy="0">Question + Evidence</tspan>
</text>
</g>
<g id="node-answer" aria-label="Answer + Citation">
<rect id="node-answer-bg" x="1380" y="375" width="130" height="78" rx="15" fill="#E8F7F0" stroke="#D8E1EC" stroke-width="1.2" filter="url(#shadow)"/>
<rect id="node-answer-accent" x="1380" y="375" width="6" height="78" rx="3" fill="#168B5B" stroke="#168B5B" stroke-width="0"/>
<text id="node-answer-title" x="1445.0" y="406" font-family="Hiragino Sans" font-size="14" font-weight="650" fill="#102A43" text-anchor="middle">
<tspan x="1445.0" dy="0">Answer + Citation</tspan>
</text>
</g>
<path id="edge-top3-prompt" d="M 1100 403 H 1125 V 459 H 1145" fill="none" stroke="#168B5B" stroke-width="2.5" stroke-linecap="round" stroke-linejoin="round" opacity="1"/>
<polygon id="edge-top3-prompt-arrowhead" points="1145.0,459.0 1135.0,463.5 1135.0,454.5" fill="#168B5B" opacity="1"/>
<path id="edge-qwen-prompt" d="M 1220 405 L 1220 424" fill="none" stroke="#168B5B" stroke-width="2.5" stroke-linecap="round" stroke-linejoin="round" opacity="1"/>
<polygon id="edge-qwen-prompt-arrowhead" points="1220.0,424.0 1215.5,414.0 1224.5,414.0" fill="#168B5B" opacity="1"/>
<path id="edge-question-prompt" d="M 177 433 V 500 H 1125 V 470 H 1145" fill="none" stroke="#2F6BFF" stroke-width="1.8" stroke-linecap="round" stroke-linejoin="round" opacity="0.65"/>
<polygon id="edge-question-prompt-arrowhead" points="1145.0,470.0 1135.0,474.5 1135.0,465.5" fill="#2F6BFF" opacity="0.65"/>
<path id="edge-prompt-answer" d="M 1355 459 H 1365 V 414 H 1380" fill="none" stroke="#168B5B" stroke-width="2.5" stroke-linecap="round" stroke-linejoin="round" opacity="1"/>
<polygon id="edge-prompt-answer-arrowhead" points="1380.0,414.0 1370.0,418.5 1370.0,409.5" fill="#168B5B" opacity="1"/>
<g id="node-citation" aria-label="Citation">
<rect id="node-citation-bg" x="120" y="575" width="170" height="66" rx="15" fill="#F0ECFF" stroke="#D8E1EC" stroke-width="1.2" filter="url(#shadow)"/>
<rect id="node-citation-accent" x="120" y="575" width="6" height="66" rx="3" fill="#7456D8" stroke="#7456D8" stroke-width="0"/>
<text id="node-citation-title" x="138" y="606" font-family="Hiragino Sans" font-size="17" font-weight="650" fill="#102A43" text-anchor="start">
<tspan x="138" dy="0">Citation</tspan>
</text>
<text id="node-citation-detail" x="138" y="630" font-family="Hiragino Sans" font-size="13" font-weight="430" fill="#5D6B7E" text-anchor="start">
<tspan x="138" dy="0">请求内 Evidence ID</tspan>
</text>
</g>
<g id="node-evidence-lineage" aria-label="Evidence 身份链">
<rect id="node-evidence-lineage-bg" x="350" y="575" width="315" height="66" rx="15" fill="#FFFFFF" stroke="#D8E1EC" stroke-width="1.2" filter="url(#shadow)"/>
<rect id="node-evidence-lineage-accent" x="350" y="575" width="6" height="66" rx="3" fill="#7456D8" stroke="#7456D8" stroke-width="0"/>
<text id="node-evidence-lineage-title" x="368" y="606" font-family="Hiragino Sans" font-size="17" font-weight="650" fill="#102A43" text-anchor="start">
<tspan x="368" dy="0">Evidence 身份链</tspan>
</text>
<text id="node-evidence-lineage-detail" x="368" y="630" font-family="Hiragino Sans" font-size="13" font-weight="430" fill="#5D6B7E" text-anchor="start">
<tspan x="368" dy="0">document · page · chunk · version</tspan>
</text>
</g>
<g id="node-claim-set" aria-label="Claim → EvidenceSet">
<rect id="node-claim-set-bg" x="790" y="575" width="250" height="66" rx="15" fill="#F0ECFF" stroke="#D8E1EC" stroke-width="1.2" filter="url(#shadow)"/>
<rect id="node-claim-set-accent" x="790" y="575" width="6" height="66" rx="3" fill="#7456D8" stroke="#7456D8" stroke-width="0"/>
<text id="node-claim-set-title" x="915.0" y="606" font-family="Hiragino Sans" font-size="17" font-weight="650" fill="#102A43" text-anchor="middle">
<tspan x="915.0" dy="0">Claim → EvidenceSet</tspan>
</text>
</g>
<g id="node-audit-only" aria-label="AUDIT_ONLY">
<rect id="node-audit-only-bg" x="1110" y="565" width="340" height="82" rx="15" fill="#F0ECFF" stroke="#D8E1EC" stroke-width="1.2" filter="url(#shadow)"/>
<rect id="node-audit-only-accent" x="1110" y="565" width="6" height="82" rx="3" fill="#7456D8" stroke="#7456D8" stroke-width="0"/>
<text id="node-audit-only-title" x="1280.0" y="596" font-family="Hiragino Sans" font-size="17" font-weight="650" fill="#102A43" text-anchor="middle">
<tspan x="1280.0" dy="0">AUDIT_ONLY</tspan>
</text>
<text id="node-audit-only-detail" x="1280.0" y="620" font-family="Hiragino Sans" font-size="13" font-weight="430" fill="#5D6B7E" text-anchor="middle">
<tspan x="1280.0" dy="0">审计，不自动裁决</tspan>
<tspan x="1280.0" dy="20">非语义 Judge</tspan>
</text>
</g>
<path id="edge-citation-lineage" d="M 290 608 L 350 608" fill="none" stroke="#7456D8" stroke-width="2.5" stroke-linecap="round" stroke-linejoin="round" opacity="1"/>
<polygon id="edge-citation-lineage-arrowhead" points="350.0,608.0 340.0,612.5 340.0,603.5" fill="#7456D8" opacity="1"/>
<path id="edge-claim-audit" d="M 1040 608 L 1110 608" fill="none" stroke="#7456D8" stroke-width="2.5" stroke-linecap="round" stroke-linejoin="round" opacity="1"/>
<polygon id="edge-claim-audit-arrowhead" points="1110.0,608.0 1100.0,612.5 1100.0,603.5" fill="#7456D8" opacity="1"/>
<path id="edge-answer-citation" d="M 1420 453 V 530 H 205 V 575" fill="none" stroke="#7456D8" stroke-width="1.8" stroke-linecap="round" stroke-linejoin="round" opacity="1" stroke-dasharray="6 6"/>
<polygon id="edge-answer-citation-arrowhead" points="205.0,575.0 200.5,565.0 209.5,565.0" fill="#7456D8" opacity="1"/>
<path id="edge-answer-claim" d="M 1460 453 V 545 H 915 V 575" fill="none" stroke="#7456D8" stroke-width="1.8" stroke-linecap="round" stroke-linejoin="round" opacity="1" stroke-dasharray="6 6"/>
<polygon id="edge-answer-claim-arrowhead" points="915.0,575.0 910.5,565.0 919.5,565.0" fill="#7456D8" opacity="1"/>
<g id="node-acl" aria-label="owner ACL + READY 可见性">
<rect id="node-acl-bg" x="95" y="738" width="245" height="58" rx="15" fill="#FFFFFF" stroke="#D8E1EC" stroke-width="1.2"/>
<rect id="node-acl-accent" x="95" y="738" width="6" height="58" rx="3" fill="#C83E4D" stroke="#C83E4D" stroke-width="0"/>
<text id="node-acl-title" x="217.5" y="769" font-family="Hiragino Sans" font-size="17" font-weight="650" fill="#102A43" text-anchor="middle">
<tspan x="217.5" dy="0">owner ACL + READY 可见性</tspan>
</text>
</g>
<g id="node-inactive" aria-label="DELETE / INACTIVE">
<rect id="node-inactive-bg" x="495" y="738" width="190" height="58" rx="15" fill="#FCECEF" stroke="#D8E1EC" stroke-width="1.2"/>
<rect id="node-inactive-accent" x="495" y="738" width="6" height="58" rx="3" fill="#C83E4D" stroke="#C83E4D" stroke-width="0"/>
<text id="node-inactive-title" x="590.0" y="769" font-family="Hiragino Sans" font-size="17" font-weight="650" fill="#102A43" text-anchor="middle">
<tspan x="590.0" dy="0">DELETE / INACTIVE</tspan>
</text>
</g>
<g id="node-cleanup" aria-label="三路 cleanup">
<rect id="node-cleanup-bg" x="815" y="728" width="310" height="78" rx="15" fill="#FFFFFF" stroke="#D8E1EC" stroke-width="1.2"/>
<rect id="node-cleanup-accent" x="815" y="728" width="6" height="78" rx="3" fill="#C83E4D" stroke="#C83E4D" stroke-width="0"/>
<text id="node-cleanup-title" x="970.0" y="759" font-family="Hiragino Sans" font-size="17" font-weight="650" fill="#102A43" text-anchor="middle">
<tspan x="970.0" dy="0">三路 cleanup</tspan>
</text>
<text id="node-cleanup-detail" x="970.0" y="783" font-family="Hiragino Sans" font-size="13" font-weight="430" fill="#5D6B7E" text-anchor="middle">
<tspan x="970.0" dy="0">PostgreSQL · ES · Milvus / snapshot</tspan>
</text>
</g>
<g id="node-403" aria-label="403 RAG_FORBIDDEN_SCOPE">
<rect id="node-403-bg" x="1260" y="728" width="245" height="78" rx="15" fill="#FCECEF" stroke="#D8E1EC" stroke-width="1.2"/>
<rect id="node-403-accent" x="1260" y="728" width="6" height="78" rx="3" fill="#C83E4D" stroke="#C83E4D" stroke-width="0"/>
<text id="node-403-title" x="1382.5" y="759" font-family="Hiragino Sans" font-size="15" font-weight="650" fill="#102A43" text-anchor="middle">
<tspan x="1382.5" dy="0">403 RAG_FORBIDDEN_SCOPE</tspan>
</text>
<text id="node-403-detail" x="1382.5" y="783" font-family="Hiragino Sans" font-size="13" font-weight="430" fill="#5D6B7E" text-anchor="middle">
<tspan x="1382.5" dy="0">不复用 stale Evidence</tspan>
</text>
</g>
<path id="edge-acl-inactive" d="M 340 767 L 495 767" fill="none" stroke="#5D6B7E" stroke-width="2.5" stroke-linecap="round" stroke-linejoin="round" opacity="1" stroke-dasharray="6 6"/>
<polygon id="edge-acl-inactive-arrowhead" points="495.0,767.0 485.0,771.5 485.0,762.5" fill="#5D6B7E" opacity="1"/>
<path id="edge-inactive-cleanup" d="M 685 767 L 815 767" fill="none" stroke="#C83E4D" stroke-width="2.5" stroke-linecap="round" stroke-linejoin="round" opacity="1"/>
<polygon id="edge-inactive-cleanup-arrowhead" points="815.0,767.0 805.0,771.5 805.0,762.5" fill="#C83E4D" opacity="1"/>
<path id="edge-cleanup-403" d="M 1125 767 L 1260 767" fill="none" stroke="#C83E4D" stroke-width="2.5" stroke-linecap="round" stroke-linejoin="round" opacity="1"/>
<polygon id="edge-cleanup-403-arrowhead" points="1260.0,767.0 1250.0,771.5 1250.0,762.5" fill="#C83E4D" opacity="1"/>
<path id="edge-acl-ready" d="M 218 738 V 690 H 1080 V 220 H 1120" fill="none" stroke="#5D6B7E" stroke-width="1.6" stroke-linecap="round" stroke-linejoin="round" opacity="0.7" stroke-dasharray="5 7"/>
<polygon id="edge-acl-ready-arrowhead" points="1120.0,220.0 1110.0,224.5 1110.0,215.5" fill="#5D6B7E" opacity="0.7"/>
<path id="edge-ready-inactive" d="M 1240 242 V 270 H 590 V 738" fill="none" stroke="#C83E4D" stroke-width="1.5" stroke-linecap="round" stroke-linejoin="round" opacity="0.55" stroke-dasharray="5 7"/>
<polygon id="edge-ready-inactive-arrowhead" points="590.0,738.0 585.5,728.0 594.5,728.0" fill="#C83E4D" opacity="0.55"/>
<text id="footer-boundary" x="800" y="866" font-family="Hiragino Sans" font-size="14" font-weight="550" fill="#5D6B7E" text-anchor="middle">
<tspan x="800" dy="0">冻结边界：默认 RRF · Reranker OFF · EvidenceSet AUDIT_ONLY · 非 production-ready</tspan>
</text>
<metadata>Spec: 01-system-architecture.spec.md; Evidence: VISUAL_EVIDENCE_LEDGER.md 01-E01..01-E18</metadata>
</svg>
